<?xml version="1.0" encoding="UTF-8" standalone="no"?>
<svg
   viewBox="0 0 513 590"
   version="1.1"
   id="svg17132"
   sodipodi:docname="montenegro.svg"
   inkscape:version="1.2.1 (9c6d41e410, 2022-07-14)"
   xmlns:inkscape="http://www.inkscape.org/namespaces/inkscape"
   xmlns:sodipodi="http://sodipodi.sourceforge.net/DTD/sodipodi-0.dtd"
   xmlns="http://www.w3.org/2000/svg"
   xmlns:svg="http://www.w3.org/2000/svg">
  <defs
     id="defs17136" />
  <sodipodi:namedview
     id="namedview17134"
     pagecolor="#ffffff"
     bordercolor="#111111"
     borderopacity="1"
     inkscape:showpageshadow="0"
     inkscape:pageopacity="0"
     inkscape:pagecheckerboard="1"
     inkscape:deskcolor="#d1d1d1"
     showgrid="false"
     inkscape:zoom="0.94560551"
     inkscape:cx="1.0575234"
     inkscape:cy="319.90084"
     inkscape:window-width="1393"
     inkscape:window-height="991"
     inkscape:window-x="26"
     inkscape:window-y="23"
     inkscape:window-maximized="0"
     inkscape:current-layer="svg17132"
     showguides="true" />
  <!-- svg generated using QGIS www.qgis.org -->
  <!-- QGIS extent for clipping, eg in Inkscape -->
  <g class="country">
    <path class="region"
       d="M 416,277 L 415,278 L 414,278 L 413,278 L 412,278 L 412,279 L 411,279 L 411,278 L 410,278 L 410,279 L 410,280 L 409,280 L 409,281 L 408,282 L 407,282 L 406,283 L 405,283 L 404,283 L 404,284 L 403,285 L 403,286 L 403,287 L 404,288 L 405,289 L 404,289 L 404,290 L 404,291 L 404,292 L 404,293 L 403,293 L 402,293 L 401,293 L 401,294 L 400,294 L 401,294 L 401,295 L 401,296 L 402,296 L 401,296 L 401,297 L 402,297 L 403,297 L 403,298 L 404,299 L 403,299 L 403,300 L 404,301 L 404,302 L 405,302 L 406,302 L 407,302 L 407,303 L 407,304 L 408,304 L 408,305 L 409,305 L 409,304 L 410,304 L 411,305 L 412,305 L 413,305 L 414,305 L 415,305 L 416,305 L 417,305 L 418,305 L 419,306 L 420,307 L 420,308 L 421,308 L 422,309 L 423,309 L 424,310 L 425,310 L 426,310 L 427,311 L 428,311 L 428,312 L 429,312 L 430,312 L 430,313 L 431,313 L 432,313 L 432,314 L 432,315 L 431,315 L 431,316 L 430,316 L 430,317 L 429,317 L 429,318 L 428,318 L 428,319 L 427,320 L 427,321 L 426,322 L 425,322 L 425,323 L 424,323 L 424,324 L 424,325 L 424,326 L 423,327 L 423,328 L 423,329 L 424,329 L 424,330 L 424,331 L 424,332 L 425,332 L 425,333 L 426,334 L 426,335 L 426,336 L 426,337 L 426,338 L 426,339 L 425,340 L 425,341 L 425,342 L 424,343 L 424,344 L 424,345 L 424,344 L 423,344 L 423,345 L 423,344 L 422,344 L 421,344 L 420,344 L 420,343 L 419,343 L 419,344 L 418,344 L 418,345 L 418,346 L 417,346 L 416,346 L 416,347 L 415,347 L 414,347 L 413,347 L 413,348 L 412,348 L 411,348 L 410,348 L 409,348 L 409,349 L 409,350 L 409,351 L 409,352 L 409,353 L 409,354 L 409,355 L 408,355 L 408,356 L 408,357 L 408,358 L 407,358 L 407,359 L 406,359 L 405,358 L 404,358 L 403,358 L 402,358 L 401,358 L 400,358 L 399,358 L 398,358 L 398,359 L 397,358 L 396,358 L 395,358 L 394,358 L 394,357 L 393,357 L 393,356 L 392,356 L 391,356 L 390,357 L 389,357 L 388,358 L 387,358 L 387,359 L 386,359 L 385,359 L 385,360 L 384,359 L 384,360 L 383,361 L 383,362 L 383,363 L 383,364 L 383,365 L 382,365 L 382,366 L 381,366 L 381,365 L 380,365 L 379,365 L 379,364 L 379,363 L 378,363 L 377,363 L 377,364 L 376,365 L 376,366 L 375,367 L 374,367 L 373,367 L 372,366 L 372,367 L 371,367 L 371,368 L 370,368 L 369,368 L 368,368 L 367,368 L 368,369 L 368,370 L 367,371 L 366,372 L 364,371 L 363,371 L 362,370 L 361,369 L 360,369 L 359,368 L 358,368 L 357,367 L 357,366 L 356,365 L 356,364 L 355,363 L 354,362 L 353,362 L 352,361 L 351,361 L 351,360 L 350,360 L 350,359 L 350,358 L 350,357 L 350,356 L 350,355 L 349,354 L 349,353 L 348,353 L 348,352 L 348,351 L 348,350 L 347,350 L 347,349 L 347,348 L 346,348 L 346,347 L 346,346 L 347,346 L 347,345 L 347,344 L 347,343 L 348,343 L 348,342 L 348,341 L 349,340 L 348,340 L 348,339 L 347,339 L 347,338 L 347,337 L 348,337 L 348,336 L 348,335 L 349,336 L 350,336 L 350,335 L 351,335 L 352,335 L 353,335 L 354,335 L 353,334 L 354,334 L 354,333 L 353,333 L 353,332 L 353,331 L 352,330 L 352,329 L 351,329 L 350,328 L 350,327 L 350,326 L 349,326 L 348,325 L 348,324 L 349,323 L 348,323 L 348,322 L 348,321 L 348,320 L 349,319 L 349,318 L 350,318 L 349,318 L 349,317 L 348,317 L 347,317 L 346,317 L 346,316 L 345,316 L 345,315 L 345,314 L 345,313 L 344,313 L 344,312 L 344,311 L 343,311 L 343,310 L 342,310 L 341,310 L 341,311 L 340,311 L 340,312 L 339,312 L 338,312 L 337,312 L 337,313 L 336,313 L 336,314 L 336,315 L 335,315 L 335,316 L 335,317 L 334,317 L 333,317 L 333,318 L 333,319 L 332,319 L 333,319 L 333,320 L 333,321 L 333,320 L 332,321 L 331,321 L 330,320 L 329,320 L 328,320 L 327,320 L 327,321 L 327,322 L 326,323 L 325,325 L 323,326 L 322,328 L 322,329 L 321,330 L 320,330 L 319,331 L 319,332 L 319,333 L 318,333 L 317,334 L 317,335 L 316,335 L 316,336 L 315,336 L 315,337 L 315,338 L 315,339 L 315,340 L 315,341 L 315,342 L 315,343 L 315,344 L 316,344 L 316,345 L 316,346 L 316,347 L 316,348 L 315,349 L 314,349 L 313,350 L 313,351 L 312,351 L 311,352 L 310,353 L 309,353 L 308,354 L 307,354 L 305,355 L 304,356 L 303,356 L 303,357 L 304,357 L 303,358 L 303,359 L 303,360 L 303,361 L 303,362 L 302,363 L 302,364 L 301,364 L 300,364 L 300,365 L 299,366 L 298,367 L 298,368 L 298,369 L 298,370 L 297,370 L 297,371 L 297,372 L 296,372 L 296,373 L 295,374 L 294,374 L 294,375 L 293,376 L 293,377 L 293,378 L 293,379 L 292,379 L 291,379 L 290,379 L 290,380 L 289,380 L 289,381 L 288,381 L 288,382 L 288,383 L 288,384 L 288,385 L 287,385 L 286,386 L 286,387 L 286,388 L 286,389 L 285,389 L 285,390 L 284,390 L 284,391 L 283,391 L 283,392 L 283,393 L 283,394 L 282,394 L 282,395 L 281,395 L 280,395 L 280,396 L 279,396 L 278,396 L 278,397 L 277,397 L 276,397 L 275,397 L 274,398 L 273,398 L 273,399 L 272,399 L 272,400 L 271,400 L 271,401 L 271,402 L 270,402 L 270,403 L 270,404 L 270,405 L 270,406 L 269,406 L 269,407 L 268,407 L 268,408 L 268,409 L 268,410 L 268,411 L 268,412 L 269,413 L 269,414 L 270,414 L 270,415 L 269,415 L 268,416 L 268,417 L 267,417 L 266,418 L 266,419 L 265,419 L 265,420 L 264,421 L 263,421 L 263,422 L 262,422 L 262,423 L 261,424 L 261,425 L 261,426 L 261,427 L 261,428 L 261,429 L 260,429 L 259,430 L 259,431 L 258,432 L 257,433 L 257,434 L 256,434 L 256,435 L 255,435 L 255,436 L 255,437 L 254,437 L 254,438 L 254,439 L 253,440 L 252,441 L 252,442 L 251,442 L 250,444 L 249,446 L 248,446 L 247,448 L 245,450 L 244,451 L 243,452 L 243,453 L 241,454 L 240,456 L 239,456 L 236,460 L 237,461 L 240,464 L 241,465 L 243,466 L 244,468 L 246,469 L 248,471 L 249,472 L 251,474 L 253,476 L 255,477 L 256,479 L 258,480 L 260,482 L 262,484 L 263,484 L 264,485 L 263,487 L 262,488 L 260,492 L 260,493 L 259,493 L 259,494 L 259,495 L 258,495 L 258,496 L 258,497 L 258,498 L 258,499 L 258,500 L 258,501 L 258,502 L 258,503 L 257,503 L 257,504 L 257,505 L 256,505 L 256,506 L 256,507 L 256,508 L 256,509 L 256,510 L 257,511 L 256,511 L 256,512 L 256,513 L 256,514 L 257,514 L 257,515 L 257,516 L 258,517 L 258,518 L 258,519 L 258,520 L 258,521 L 258,522 L 258,523 L 257,523 L 257,524 L 257,525 L 256,525 L 257,526 L 258,526 L 258,527 L 259,527 L 259,528 L 259,529 L 258,530 L 256,530 L 255,530 L 253,530 L 252,530 L 251,531 L 250,532 L 250,533 L 251,533 L 250,534 L 250,535 L 250,536 L 250,537 L 251,537 L 251,538 L 252,538 L 252,539 L 253,539 L 254,540 L 254,541 L 255,541 L 255,542 L 255,543 L 254,543 L 254,544 L 253,544 L 252,544 L 251,545 L 250,545 L 249,545 L 249,546 L 248,546 L 248,547 L 248,548 L 249,548 L 250,549 L 251,549 L 252,549 L 253,549 L 253,550 L 254,550 L 254,551 L 254,552 L 254,553 L 255,553 L 256,553 L 257,553 L 257,554 L 257,555 L 256,556 L 256,557 L 256,558 L 256,559 L 256,561 L 255,561 L 255,563 L 255,564 L 253,562 L 250,560 L 250,559 L 241,552 L 225,546 L 225,547 L 220,543 L 215,540 L 212,538 L 209,537 L 207,534 L 205,532 L 208,532 L 208,531 L 207,529 L 204,527 L 203,525 L 203,523 L 205,522 L 206,522 L 205,521 L 204,519 L 204,517 L 204,516 L 206,514 L 205,513 L 204,512 L 206,510 L 205,509 L 204,508 L 203,507 L 204,504 L 204,503 L 202,501 L 199,498 L 195,496 L 190,492 L 188,490 L 188,489 L 189,489 L 190,489 L 191,489 L 192,488 L 193,486 L 193,485 L 192,484 L 191,482 L 189,480 L 187,478 L 186,476 L 185,474 L 184,473 L 181,474 L 179,473 L 178,473 L 177,472 L 176,472 L 174,474 L 173,473 L 172,469 L 172,466 L 169,468 L 167,466 L 166,466 L 164,464 L 162,463 L 162,460 L 161,460 L 162,458 L 161,457 L 160,456 L 158,455 L 158,454 L 155,452 L 153,452 L 148,447 L 147,443 L 145,442 L 145,441 L 146,439 L 145,437 L 145,435 L 145,432 L 144,431 L 143,429 L 139,428 L 137,428 L 136,427 L 135,426 L 132,427 L 130,429 L 129,428 L 127,426 L 126,425 L 124,427 L 125,428 L 124,429 L 123,429 L 121,426 L 120,426 L 121,429 L 120,430 L 118,430 L 114,426 L 114,425 L 112,424 L 111,422 L 109,419 L 108,419 L 107,419 L 107,417 L 104,415 L 104,413 L 103,412 L 102,411 L 103,411 L 104,410 L 102,409 L 102,407 L 101,405 L 99,405 L 98,404 L 99,403 L 98,402 L 98,401 L 99,400 L 101,402 L 102,401 L 100,397 L 98,396 L 97,392 L 96,392 L 92,392 L 90,392 L 90,393 L 91,396 L 89,399 L 88,398 L 87,397 L 85,397 L 85,398 L 84,399 L 83,398 L 81,398 L 80,398 L 79,398 L 78,396 L 77,396 L 76,395 L 75,394 L 75,392 L 74,392 L 73,391 L 71,390 L 70,389 L 72,388 L 72,387 L 72,386 L 70,386 L 68,384 L 67,383 L 65,382 L 65,381 L 66,378 L 69,376 L 71,376 L 73,376 L 75,377 L 77,379 L 81,379 L 83,380 L 92,385 L 96,386 L 99,387 L 101,389 L 102,389 L 103,388 L 103,385 L 104,385 L 104,383 L 100,377 L 99,375 L 98,375 L 98,374 L 99,373 L 98,370 L 97,368 L 99,366 L 98,365 L 99,363 L 100,362 L 101,363 L 102,364 L 103,364 L 105,364 L 107,366 L 110,367 L 110,368 L 114,372 L 116,381 L 117,380 L 115,374 L 117,371 L 116,367 L 117,366 L 116,363 L 117,362 L 117,360 L 115,359 L 114,360 L 113,361 L 110,360 L 106,361 L 102,360 L 100,358 L 101,354 L 101,353 L 101,352 L 99,351 L 98,353 L 97,354 L 95,354 L 91,358 L 91,360 L 94,360 L 95,360 L 98,362 L 96,365 L 95,368 L 92,370 L 91,370 L 90,372 L 89,372 L 86,374 L 83,375 L 81,375 L 79,376 L 77,375 L 75,375 L 71,371 L 70,370 L 69,370 L 66,371 L 64,371 L 62,370 L 61,370 L 58,368 L 57,368 L 56,369 L 56,371 L 57,373 L 58,375 L 61,377 L 61,378 L 59,379 L 59,378 L 58,378 L 57,378 L 56,377 L 55,376 L 54,375 L 54,374 L 53,373 L 52,372 L 52,371 L 51,371 L 51,370 L 50,369 L 49,368 L 49,367 L 48,366 L 47,365 L 47,364 L 46,364 L 45,364 L 45,363 L 44,363 L 43,363 L 43,362 L 42,361 L 41,360 L 40,360 L 39,359 L 40,358 L 41,356 L 41,355 L 41,354 L 41,353 L 42,353 L 42,352 L 43,351 L 42,351 L 42,350 L 41,349 L 41,348 L 41,347 L 41,346 L 41,344 L 41,343 L 41,342 L 41,341 L 41,340 L 41,339 L 41,338 L 41,337 L 41,336 L 42,336 L 43,336 L 44,336 L 45,336 L 45,335 L 46,335 L 47,335 L 48,334 L 49,334 L 49,333 L 50,333 L 51,332 L 52,331 L 53,330 L 53,329 L 54,329 L 54,328 L 55,327 L 56,327 L 57,327 L 58,327 L 59,328 L 60,328 L 61,328 L 62,328 L 62,329 L 63,329 L 63,330 L 64,330 L 64,331 L 65,331 L 66,331 L 67,331 L 67,330 L 68,330 L 68,329 L 68,328 L 68,327 L 68,326 L 68,325 L 67,325 L 66,324 L 65,323 L 64,323 L 64,322 L 64,321 L 64,320 L 63,320 L 63,319 L 62,318 L 62,317 L 62,316 L 63,315 L 63,314 L 64,314 L 64,313 L 65,313 L 65,312 L 66,312 L 67,311 L 68,311 L 69,311 L 70,310 L 71,310 L 72,310 L 73,310 L 74,310 L 74,309 L 74,308 L 74,307 L 73,307 L 73,306 L 72,306 L 72,305 L 72,304 L 71,303 L 70,303 L 69,302 L 69,301 L 68,301 L 68,300 L 69,300 L 69,299 L 69,298 L 68,298 L 68,297 L 68,296 L 68,295 L 68,294 L 68,295 L 69,295 L 70,294 L 70,293 L 70,292 L 71,292 L 71,291 L 72,291 L 72,290 L 72,289 L 72,288 L 73,288 L 73,287 L 73,286 L 73,285 L 72,285 L 71,284 L 70,284 L 70,285 L 69,285 L 68,285 L 67,285 L 66,285 L 66,284 L 65,284 L 64,284 L 63,283 L 62,283 L 62,282 L 61,281 L 60,281 L 60,280 L 59,280 L 58,281 L 57,280 L 57,279 L 58,278 L 57,278 L 57,277 L 56,277 L 56,276 L 55,276 L 55,275 L 54,275 L 53,275 L 52,274 L 51,274 L 51,273 L 51,272 L 51,271 L 51,270 L 52,270 L 52,269 L 52,268 L 51,268 L 52,268 L 52,267 L 51,267 L 51,266 L 51,265 L 51,264 L 50,263 L 49,263 L 49,262 L 50,262 L 50,261 L 50,260 L 51,260 L 51,259 L 50,258 L 50,257 L 50,256 L 50,255 L 49,255 L 49,254 L 49,253 L 49,252 L 50,252 L 51,252 L 52,251 L 52,250 L 51,249 L 50,248 L 50,247 L 50,246 L 50,245 L 51,244 L 51,243 L 52,242 L 52,241 L 53,241 L 53,240 L 54,240 L 54,241 L 55,241 L 56,241 L 57,240 L 57,239 L 57,238 L 57,237 L 57,236 L 56,235 L 57,234 L 58,234 L 59,234 L 60,233 L 61,233 L 60,232 L 60,231 L 60,230 L 59,229 L 59,228 L 59,227 L 58,225 L 57,223 L 57,222 L 56,221 L 56,220 L 55,219 L 55,218 L 56,218 L 56,217 L 56,216 L 56,215 L 56,214 L 56,213 L 56,212 L 56,211 L 56,210 L 56,208 L 57,207 L 57,206 L 58,205 L 58,204 L 58,203 L 59,202 L 59,201 L 59,200 L 59,199 L 60,199 L 60,198 L 61,198 L 61,197 L 62,197 L 62,196 L 63,194 L 63,193 L 64,191 L 65,190 L 67,189 L 68,188 L 69,187 L 71,187 L 73,187 L 74,187 L 77,188 L 78,188 L 79,188 L 81,188 L 82,188 L 83,188 L 84,188 L 85,188 L 86,188 L 88,188 L 91,187 L 92,187 L 94,186 L 95,186 L 98,186 L 98,184 L 97,183 L 97,182 L 97,180 L 97,179 L 97,178 L 97,177 L 97,176 L 97,175 L 97,174 L 97,173 L 97,171 L 97,170 L 97,169 L 97,168 L 97,166 L 97,165 L 97,164 L 97,163 L 96,162 L 96,160 L 96,159 L 96,158 L 96,156 L 96,154 L 96,153 L 96,152 L 95,151 L 96,150 L 96,149 L 96,148 L 97,148 L 97,147 L 97,146 L 98,145 L 98,144 L 98,143 L 98,142 L 98,141 L 99,140 L 99,139 L 99,138 L 100,137 L 100,136 L 100,135 L 100,134 L 100,133 L 102,132 L 103,132 L 104,131 L 105,131 L 106,130 L 107,129 L 108,128 L 109,127 L 110,127 L 111,126 L 112,125 L 111,124 L 110,123 L 109,121 L 108,120 L 107,119 L 106,117 L 108,116 L 110,114 L 112,113 L 113,112 L 114,111 L 115,110 L 116,110 L 116,109 L 117,109 L 119,108 L 121,107 L 122,106 L 124,105 L 125,105 L 127,104 L 128,103 L 129,103 L 129,102 L 131,102 L 132,101 L 133,101 L 134,100 L 136,100 L 137,99 L 138,99 L 139,98 L 140,98 L 141,97 L 143,97 L 144,96 L 144,95 L 144,94 L 144,93 L 143,92 L 143,91 L 142,91 L 141,90 L 141,89 L 142,89 L 143,89 L 144,89 L 144,88 L 145,88 L 146,88 L 147,88 L 147,87 L 148,87 L 149,87 L 150,87 L 150,86 L 151,86 L 151,87 L 152,87 L 153,87 L 154,87 L 155,87 L 156,87 L 156,86 L 157,86 L 158,85 L 159,86 L 159,87 L 160,87 L 160,88 L 161,88 L 161,89 L 162,89 L 162,90 L 162,91 L 163,91 L 164,92 L 164,93 L 165,93 L 165,94 L 166,94 L 166,95 L 167,95 L 168,95 L 169,95 L 169,96 L 169,97 L 169,98 L 169,99 L 169,100 L 168,100 L 167,101 L 167,102 L 167,103 L 166,103 L 166,104 L 167,105 L 167,106 L 167,107 L 167,108 L 168,109 L 168,108 L 169,108 L 169,109 L 170,109 L 171,109 L 171,110 L 172,110 L 173,110 L 173,111 L 174,111 L 174,112 L 174,113 L 175,113 L 175,114 L 175,115 L 174,115 L 174,116 L 174,117 L 175,117 L 176,118 L 176,119 L 177,119 L 177,120 L 178,120 L 179,120 L 180,118 L 180,117 L 181,117 L 182,115 L 182,114 L 182,113 L 183,111 L 184,110 L 184,108 L 185,106 L 185,105 L 185,104 L 186,104 L 186,103 L 187,103 L 188,103 L 188,102 L 189,102 L 190,102 L 192,102 L 195,102 L 196,102 L 197,101 L 196,100 L 195,99 L 195,98 L 194,97 L 194,96 L 194,95 L 194,94 L 194,93 L 193,93 L 193,92 L 193,91 L 193,90 L 193,89 L 192,88 L 191,88 L 190,87 L 189,87 L 189,86 L 188,85 L 188,84 L 188,83 L 188,82 L 187,81 L 187,80 L 186,79 L 186,77 L 186,75 L 186,74 L 186,72 L 186,71 L 186,70 L 186,68 L 185,68 L 184,66 L 184,65 L 183,65 L 183,64 L 183,63 L 182,63 L 182,62 L 181,62 L 181,61 L 181,60 L 181,59 L 182,59 L 181,59 L 181,60 L 180,60 L 180,59 L 181,59 L 180,59 L 180,60 L 179,61 L 179,60 L 178,60 L 179,59 L 178,59 L 177,58 L 177,59 L 176,59 L 176,58 L 176,57 L 175,57 L 175,56 L 174,56 L 173,56 L 172,56 L 171,57 L 170,57 L 170,56 L 169,56 L 169,57 L 169,56 L 169,55 L 170,55 L 170,54 L 170,53 L 170,52 L 170,51 L 170,50 L 169,49 L 169,48 L 170,47 L 170,46 L 170,45 L 169,45 L 169,44 L 168,44 L 168,43 L 167,43 L 167,42 L 166,42 L 165,42 L 165,43 L 165,44 L 165,45 L 165,46 L 164,47 L 163,47 L 162,48 L 162,47 L 162,46 L 161,44 L 161,43 L 161,42 L 161,41 L 160,41 L 160,40 L 161,39 L 161,38 L 162,38 L 162,37 L 163,37 L 164,37 L 165,37 L 166,36 L 167,36 L 168,36 L 168,35 L 169,35 L 169,34 L 170,34 L 171,34 L 172,34 L 173,33 L 174,33 L 175,33 L 175,32 L 175,31 L 175,30 L 175,29 L 175,28 L 176,28 L 176,27 L 177,27 L 177,26 L 177,25 L 178,24 L 179,24 L 180,23 L 181,23 L 182,23 L 182,24 L 183,25 L 183,26 L 183,27 L 184,27 L 185,27 L 186,27 L 186,28 L 186,29 L 187,30 L 188,30 L 188,31 L 189,32 L 190,33 L 190,34 L 190,35 L 190,36 L 190,37 L 190,38 L 190,39 L 190,40 L 190,41 L 191,40 L 191,41 L 192,41 L 193,41 L 194,40 L 194,39 L 195,38 L 196,38 L 197,38 L 197,37 L 198,37 L 199,37 L 200,37 L 201,36 L 201,35 L 202,35 L 202,34 L 203,34 L 203,35 L 204,35 L 206,35 L 207,35 L 208,36 L 209,36 L 209,35 L 210,35 L 210,34 L 211,34 L 212,34 L 212,33 L 213,32 L 214,32 L 215,32 L 215,31 L 216,31 L 217,31 L 218,31 L 219,31 L 220,32 L 221,32 L 222,32 L 223,32 L 224,32 L 225,32 L 226,32 L 227,32 L 227,33 L 228,33 L 229,33 L 230,33 L 230,34 L 231,34 L 232,34 L 232,35 L 233,35 L 233,36 L 232,36 L 232,37 L 232,38 L 232,39 L 232,40 L 232,41 L 233,41 L 233,42 L 233,43 L 233,44 L 233,45 L 233,46 L 233,47 L 232,48 L 232,49 L 233,49 L 233,50 L 234,51 L 235,52 L 235,53 L 236,53 L 237,54 L 238,54 L 239,55 L 240,55 L 240,56 L 241,56 L 242,56 L 242,57 L 243,57 L 243,58 L 244,58 L 245,58 L 245,59 L 246,59 L 247,60 L 248,60 L 248,61 L 249,61 L 250,61 L 250,62 L 251,62 L 252,62 L 253,62 L 254,62 L 254,63 L 255,63 L 256,64 L 257,64 L 257,65 L 258,65 L 258,66 L 259,66 L 260,66 L 260,67 L 261,67 L 262,67 L 262,68 L 263,68 L 264,69 L 265,69 L 265,70 L 266,70 L 266,71 L 267,71 L 267,72 L 268,72 L 268,73 L 269,74 L 270,75 L 271,75 L 271,76 L 272,76 L 272,77 L 273,77 L 274,77 L 275,77 L 276,78 L 277,78 L 278,78 L 279,78 L 280,78 L 280,79 L 281,79 L 281,80 L 282,80 L 282,81 L 282,82 L 282,83 L 282,84 L 283,85 L 283,86 L 284,86 L 284,87 L 284,88 L 284,89 L 284,90 L 283,91 L 284,91 L 284,92 L 285,92 L 285,93 L 286,93 L 287,93 L 287,94 L 288,94 L 288,95 L 288,96 L 289,96 L 289,97 L 289,98 L 290,98 L 290,99 L 291,99 L 292,99 L 293,99 L 294,99 L 294,100 L 295,100 L 295,101 L 295,102 L 296,102 L 296,103 L 296,104 L 296,105 L 296,106 L 295,106 L 295,107 L 295,108 L 295,109 L 295,110 L 295,111 L 295,112 L 295,113 L 295,114 L 296,115 L 296,116 L 296,117 L 297,118 L 297,119 L 298,119 L 298,120 L 299,120 L 299,121 L 300,121 L 300,122 L 301,122 L 301,123 L 302,123 L 302,124 L 303,124 L 304,124 L 304,125 L 305,125 L 306,125 L 307,125 L 308,125 L 309,125 L 310,125 L 311,125 L 311,126 L 312,126 L 312,127 L 313,128 L 313,129 L 314,130 L 315,131 L 315,132 L 316,132 L 316,133 L 317,133 L 317,134 L 318,135 L 319,136 L 319,137 L 320,138 L 320,139 L 321,139 L 321,140 L 321,141 L 321,142 L 321,143 L 321,144 L 322,145 L 322,146 L 322,147 L 322,148 L 323,148 L 324,148 L 324,149 L 325,149 L 326,149 L 327,149 L 327,150 L 328,150 L 329,150 L 330,150 L 331,150 L 332,150 L 333,150 L 334,150 L 335,150 L 336,150 L 337,150 L 338,150 L 339,150 L 340,150 L 341,150 L 342,150 L 343,150 L 344,150 L 345,150 L 346,150 L 347,150 L 347,151 L 348,151 L 349,152 L 350,152 L 350,153 L 351,153 L 352,153 L 353,153 L 354,153 L 355,153 L 356,153 L 357,153 L 357,154 L 357,155 L 358,155 L 358,156 L 358,157 L 358,158 L 358,159 L 357,159 L 357,160 L 358,161 L 358,162 L 359,162 L 360,162 L 360,163 L 361,163 L 361,164 L 362,164 L 362,165 L 362,166 L 363,166 L 364,166 L 365,167 L 366,168 L 367,168 L 367,169 L 368,170 L 368,171 L 368,172 L 369,172 L 369,173 L 370,173 L 371,173 L 372,172 L 373,172 L 374,172 L 375,172 L 376,172 L 376,173 L 377,173 L 377,174 L 378,174 L 379,174 L 380,174 L 380,175 L 381,175 L 382,175 L 383,175 L 384,175 L 385,175 L 385,176 L 386,176 L 387,176 L 388,176 L 389,177 L 390,177 L 391,177 L 392,177 L 393,177 L 394,177 L 395,177 L 395,178 L 396,178 L 396,177 L 397,177 L 398,177 L 398,176 L 399,176 L 399,175 L 400,176 L 400,177 L 400,178 L 400,179 L 401,180 L 401,181 L 401,182 L 402,182 L 402,183 L 403,184 L 403,185 L 404,186 L 404,187 L 405,187 L 405,188 L 406,189 L 407,190 L 408,190 L 408,191 L 409,191 L 409,192 L 410,192 L 411,193 L 412,193 L 413,194 L 414,194 L 414,195 L 415,195 L 416,196 L 417,196 L 418,196 L 418,197 L 419,197 L 420,197 L 421,197 L 422,198 L 423,198 L 424,198 L 424,199 L 425,199 L 425,200 L 424,200 L 423,201 L 422,201 L 421,202 L 421,203 L 420,203 L 419,204 L 419,205 L 418,205 L 417,205 L 417,206 L 416,207 L 416,208 L 417,208 L 418,208 L 418,207 L 419,207 L 420,207 L 421,207 L 422,207 L 422,206 L 423,206 L 424,206 L 425,206 L 425,207 L 426,207 L 427,207 L 427,208 L 428,208 L 428,209 L 428,210 L 428,211 L 428,212 L 429,212 L 430,212 L 430,213 L 431,213 L 432,213 L 433,213 L 434,214 L 435,215 L 436,216 L 436,215 L 437,215 L 437,214 L 438,214 L 438,213 L 439,213 L 439,212 L 440,212 L 441,212 L 442,212 L 443,212 L 444,212 L 445,212 L 445,213 L 446,213 L 447,213 L 448,214 L 449,214 L 449,215 L 450,215 L 450,216 L 451,216 L 451,217 L 452,217 L 453,218 L 454,218 L 455,218 L 456,218 L 457,218 L 457,219 L 458,219 L 458,220 L 458,221 L 459,221 L 459,222 L 460,222 L 461,222 L 461,223 L 462,223 L 463,223 L 464,224 L 465,224 L 466,224 L 467,224 L 468,224 L 468,225 L 469,225 L 469,226 L 470,226 L 471,226 L 472,227 L 473,227 L 474,227 L 475,228 L 476,229 L 477,230 L 478,230 L 479,230 L 480,230 L 480,229 L 481,229 L 482,229 L 482,228 L 483,228 L 484,228 L 484,229 L 485,230 L 486,230 L 486,229 L 487,229 L 488,229 L 488,230 L 488,231 L 487,232 L 487,233 L 488,233 L 488,234 L 488,235 L 488,236 L 488,237 L 489,237 L 488,238 L 488,239 L 488,240 L 488,241 L 488,242 L 488,243 L 488,244 L 487,244 L 487,245 L 487,246 L 487,247 L 487,248 L 488,249 L 488,250 L 488,251 L 488,252 L 488,253 L 488,254 L 489,254 L 489,255 L 489,256 L 490,256 L 490,257 L 490,258 L 489,258 L 488,258 L 487,258 L 487,257 L 486,257 L 485,257 L 484,257 L 483,257 L 482,258 L 481,259 L 481,260 L 481,261 L 480,261 L 479,261 L 479,262 L 478,262 L 477,262 L 477,261 L 476,261 L 476,260 L 475,260 L 475,259 L 474,259 L 474,260 L 473,260 L 472,260 L 471,260 L 471,261 L 470,261 L 470,262 L 469,262 L 468,262 L 468,263 L 467,263 L 466,263 L 466,264 L 465,264 L 465,265 L 464,265 L 464,266 L 463,266 L 463,267 L 463,268 L 463,269 L 462,269 L 462,270 L 461,271 L 460,271 L 460,272 L 459,272 L 458,272 L 457,272 L 457,273 L 457,274 L 457,275 L 458,275 L 458,276 L 458,277 L 458,278 L 458,277 L 457,277 L 456,276 L 455,276 L 455,277 L 455,278 L 454,279 L 454,280 L 454,281 L 454,282 L 453,282 L 452,282 L 451,282 L 450,281 L 450,282 L 449,282 L 448,282 L 447,282 L 446,282 L 445,282 L 444,282 L 443,282 L 442,282 L 441,282 L 440,282 L 440,281 L 439,281 L 439,280 L 438,280 L 437,280 L 437,279 L 436,279 L 435,279 L 435,280 L 434,280 L 433,280 L 433,279 L 432,279 L 432,278 L 431,278 L 431,277 L 430,277 L 429,277 L 428,277 L 428,276 L 427,276 L 426,276 L 425,276 L 425,275 L 424,275 L 423,275 L 423,274 L 422,273 L 421,274 L 420,274 L 419,274 L 419,275 L 418,275 L 418,276 L 417,276 L 417,277 L 416,277 "
       id="path17121" />
    <path class="region"
       d="M 137,433 L 136,434 L 135,433 L 134,432 L 133,431 L 135,430 L 137,433 "
       id="path17123" />
  </g>
  <g class="mgrs10k">
    <path class="mgrs10k-field"
       d="M 241,549 L 270,549 L 270,578 L 241,578 L 241,549 "
       id="34TCM63" />
    <path class="mgrs10k-field"
       d="M 213,549 L 241,549 L 241,578 L 213,578 L 213,549 "
       id="34TCM53" />
    <path class="mgrs10k-field"
       d="M 241,521 L 270,521 L 270,549 L 241,549 L 241,521 "
       id="34TCM64" />
    <path class="mgrs10k-field"
       d="M 213,521 L 241,521 L 241,549 L 213,549 L 213,521 "
       id="34TCM54" />
    <path class="mgrs10k-field"
       d="M 184,521 L 213,521 L 213,549 L 184,549 L 184,521 "
       id="34TCM44" />
    <path class="mgrs10k-field"
       d="M 241,492 L 270,492 L 270,521 L 241,521 L 241,492 "
       id="34TCM65" />
    <path class="mgrs10k-field"
       d="M 213,492 L 241,492 L 241,521 L 213,521 L 213,492 "
       id="34TCM55" />
    <path class="mgrs10k-field"
       d="M 184,492 L 213,492 L 213,521 L 184,521 L 184,492 "
       id="34TCM45" />
    <path class="mgrs10k-field"
       d="M 241,464 L 270,464 L 270,492 L 241,492 L 241,464 "
       id="34TCM66" />
    <path class="mgrs10k-field"
       d="M 213,464 L 241,464 L 241,492 L 213,492 L 213,464 "
       id="34TCM56" />
    <path class="mgrs10k-field"
       d="M 184,464 L 213,464 L 213,492 L 184,492 L 184,464 "
       id="34TCM46" />
    <path class="mgrs10k-field"
       d="M 156,464 L 184,464 L 184,492 L 156,492 L 156,464 "
       id="34TCM36" />
    <path class="mgrs10k-field"
       d="M 241,435 L 270,435 L 270,464 L 241,464 L 241,435 "
       id="34TCM67" />
    <path class="mgrs10k-field"
       d="M 213,435 L 241,435 L 241,464 L 213,464 L 213,435 "
       id="34TCM57" />
    <path class="mgrs10k-field"
       d="M 184,435 L 213,435 L 213,464 L 184,464 L 184,435 "
       id="34TCM47" />
    <path class="mgrs10k-field"
       d="M 156,435 L 184,435 L 184,464 L 156,464 L 156,435 "
       id="34TCM37" />
    <path class="mgrs10k-field"
       d="M 127,435 L 156,435 L 156,464 L 127,464 L 127,435 "
       id="34TCM27" />
    <path class="mgrs10k-field"
       d="M 270,407 L 298,407 L 298,435 L 270,435 L 270,407 "
       id="34TCM78" />
    <path class="mgrs10k-field"
       d="M 241,407 L 270,407 L 270,435 L 241,435 L 241,407 "
       id="34TCM68" />
    <path class="mgrs10k-field"
       d="M 213,407 L 241,407 L 241,435 L 213,435 L 213,407 "
       id="34TCM58" />
    <path class="mgrs10k-field"
       d="M 184,407 L 213,407 L 213,435 L 184,435 L 184,407 "
       id="34TCM48" />
    <path class="mgrs10k-field"
       d="M 156,407 L 184,407 L 184,435 L 156,435 L 156,407 "
       id="34TCM38" />
    <path class="mgrs10k-field"
       d="M 127,407 L 156,407 L 156,435 L 127,435 L 127,407 "
       id="34TCM28" />
    <path class="mgrs10k-field"
       d="M 99,407 L 127,407 L 127,435 L 99,435 L 99,407 "
       id="34TCM18" />
    <path class="mgrs10k-field"
       d="M 270,378 L 298,378 L 298,407 L 270,407 L 270,378 "
       id="34TCM79" />
    <path class="mgrs10k-field"
       d="M 241,378 L 270,378 L 270,407 L 241,407 L 241,378 "
       id="34TCM69" />
    <path class="mgrs10k-field"
       d="M 213,378 L 241,378 L 241,407 L 213,407 L 213,378 "
       id="34TCM59" />
    <path class="mgrs10k-field"
       d="M 184,378 L 213,378 L 213,407 L 184,407 L 184,378 "
       id="34TCM49" />
    <path class="mgrs10k-field"
       d="M 156,378 L 184,378 L 184,407 L 156,407 L 156,378 "
       id="34TCM39" />
    <path class="mgrs10k-field"
       d="M 127,378 L 156,378 L 156,407 L 127,407 L 127,378 "
       id="34TCM29" />
    <path class="mgrs10k-field"
       d="M 99,378 L 127,378 L 127,407 L 99,407 L 99,378 "
       id="34TCM19" />
    <path class="mgrs10k-field"
       d="M 70,378 L 99,378 L 99,407 L 70,407 L 70,378 "
       id="34TCM09" />
    <path class="mgrs10k-field"
       d="M 42,378 L 70,378 L 70,407 L 42,407 L 42,378 "
       id="34TBM99" />
    <path class="mgrs10k-field"
       d="M 383,350 L 412,350 L 412,378 L 383,378 L 383,350 "
       id="34TDN10" />
    <path class="mgrs10k-field"
       d="M 355,350 L 383,350 L 383,378 L 355,378 L 355,350 "
       id="34TDN00" />
    <path class="mgrs10k-field"
       d="M 327,350 L 355,350 L 355,378 L 327,378 L 327,350 "
       id="34TCN90" />
    <path class="mgrs10k-field"
       d="M 298,350 L 327,350 L 327,378 L 298,378 L 298,350 "
       id="34TCN80" />
    <path class="mgrs10k-field"
       d="M 270,350 L 298,350 L 298,378 L 270,378 L 270,350 "
       id="34TCN70" />
    <path class="mgrs10k-field"
       d="M 241,350 L 270,350 L 270,378 L 241,378 L 241,350 "
       id="34TCN60" />
    <path class="mgrs10k-field"
       d="M 213,350 L 241,350 L 241,378 L 213,378 L 213,350 "
       id="34TCN50" />
    <path class="mgrs10k-field"
       d="M 184,350 L 213,350 L 213,378 L 184,378 L 184,350 "
       id="34TCN40" />
    <path class="mgrs10k-field"
       d="M 156,350 L 184,350 L 184,378 L 156,378 L 156,350 "
       id="34TCN30" />
    <path class="mgrs10k-field"
       d="M 127,350 L 156,350 L 156,378 L 127,378 L 127,350 "
       id="34TCN20" />
    <path class="mgrs10k-field"
       d="M 99,350 L 127,350 L 127,378 L 99,378 L 99,350 "
       id="34TCN10" />
    <path class="mgrs10k-field"
       d="M 70,350 L 99,350 L 99,378 L 70,378 L 70,350 "
       id="34TCN00" />
    <path class="mgrs10k-field"
       d="M 42,350 L 70,350 L 70,378 L 42,378 L 42,350 "
       id="34TBN90" />
    <path class="mgrs10k-field"
       d="M 13,350 L 42,350 L 42,378 L 13,378 L 13,350 "
       id="34TBN80" />
    <path class="mgrs10k-field"
       d="M 412,321 L 440,321 L 440,350 L 412,350 L 412,321 "
       id="34TDN21" />
    <path class="mgrs10k-field"
       d="M 383,321 L 412,321 L 412,350 L 383,350 L 383,321 "
       id="34TDN11" />
    <path class="mgrs10k-field"
       d="M 355,321 L 383,321 L 383,350 L 355,350 L 355,321 "
       id="34TDN01" />
    <path class="mgrs10k-field"
       d="M 327,321 L 355,321 L 355,350 L 327,350 L 327,321 "
       id="34TCN91" />
    <path class="mgrs10k-field"
       d="M 298,321 L 327,321 L 327,350 L 298,350 L 298,321 "
       id="34TCN81" />
    <path class="mgrs10k-field"
       d="M 270,321 L 298,321 L 298,350 L 270,350 L 270,321 "
       id="34TCN71" />
    <path class="mgrs10k-field"
       d="M 241,321 L 270,321 L 270,350 L 241,350 L 241,321 "
       id="34TCN61" />
    <path class="mgrs10k-field"
       d="M 213,321 L 241,321 L 241,350 L 213,350 L 213,321 "
       id="34TCN51" />
    <path class="mgrs10k-field"
       d="M 184,321 L 213,321 L 213,350 L 184,350 L 184,321 "
       id="34TCN41" />
    <path class="mgrs10k-field"
       d="M 156,321 L 184,321 L 184,350 L 156,350 L 156,321 "
       id="34TCN31" />
    <path class="mgrs10k-field"
       d="M 127,321 L 156,321 L 156,350 L 127,350 L 127,321 "
       id="34TCN21" />
    <path class="mgrs10k-field"
       d="M 99,321 L 127,321 L 127,350 L 99,350 L 99,321 "
       id="34TCN11" />
    <path class="mgrs10k-field"
       d="M 70,321 L 99,321 L 99,350 L 70,350 L 70,321 "
       id="34TCN01" />
    <path class="mgrs10k-field"
       d="M 42,321 L 70,321 L 70,350 L 42,350 L 42,321 "
       id="34TBN91" />
    <path class="mgrs10k-field"
       d="M 13,321 L 42,321 L 42,350 L 13,350 L 13,321 "
       id="34TBN81" />
    <path class="mgrs10k-field"
       d="M 412,293 L 440,293 L 440,321 L 412,321 L 412,293 "
       id="34TDN22" />
    <path class="mgrs10k-field"
       d="M 383,293 L 412,293 L 412,321 L 383,321 L 383,293 "
       id="34TDN12" />
    <path class="mgrs10k-field"
       d="M 355,293 L 383,293 L 383,321 L 355,321 L 355,293 "
       id="34TDN02" />
    <path class="mgrs10k-field"
       d="M 327,293 L 355,293 L 355,321 L 327,321 L 327,293 "
       id="34TCN92" />
    <path class="mgrs10k-field"
       d="M 298,293 L 327,293 L 327,321 L 298,321 L 298,293 "
       id="34TCN82" />
    <path class="mgrs10k-field"
       d="M 270,293 L 298,293 L 298,321 L 270,321 L 270,293 "
       id="34TCN72" />
    <path class="mgrs10k-field"
       d="M 241,293 L 270,293 L 270,321 L 241,321 L 241,293 "
       id="34TCN62" />
    <path class="mgrs10k-field"
       d="M 213,293 L 241,293 L 241,321 L 213,321 L 213,293 "
       id="34TCN52" />
    <path class="mgrs10k-field"
       d="M 184,293 L 213,293 L 213,321 L 184,321 L 184,293 "
       id="34TCN42" />
    <path class="mgrs10k-field"
       d="M 156,293 L 184,293 L 184,321 L 156,321 L 156,293 "
       id="34TCN32" />
    <path class="mgrs10k-field"
       d="M 127,293 L 156,293 L 156,321 L 127,321 L 127,293 "
       id="34TCN22" />
    <path class="mgrs10k-field"
       d="M 99,293 L 127,293 L 127,321 L 99,321 L 99,293 "
       id="34TCN12" />
    <path class="mgrs10k-field"
       d="M 70,293 L 99,293 L 99,321 L 70,321 L 70,293 "
       id="34TCN02" />
    <path class="mgrs10k-field"
       d="M 42,293 L 70,293 L 70,321 L 42,321 L 42,293 "
       id="34TBN92" />
    <path class="mgrs10k-field"
       d="M 440,265 L 469,265 L 469,293 L 440,293 L 440,265 "
       id="34TDN33" />
    <path class="mgrs10k-field"
       d="M 412,265 L 440,265 L 440,293 L 412,293 L 412,265 "
       id="34TDN23" />
    <path class="mgrs10k-field"
       d="M 383,265 L 412,265 L 412,293 L 383,293 L 383,265 "
       id="34TDN13" />
    <path class="mgrs10k-field"
       d="M 355,265 L 383,265 L 383,293 L 355,293 L 355,265 "
       id="34TDN03" />
    <path class="mgrs10k-field"
       d="M 327,265 L 355,265 L 355,293 L 327,293 L 327,265 "
       id="34TCN93" />
    <path class="mgrs10k-field"
       d="M 298,265 L 327,265 L 327,293 L 298,293 L 298,265 "
       id="34TCN83" />
    <path class="mgrs10k-field"
       d="M 270,265 L 298,265 L 298,293 L 270,293 L 270,265 "
       id="34TCN73" />
    <path class="mgrs10k-field"
       d="M 241,265 L 270,265 L 270,293 L 241,293 L 241,265 "
       id="34TCN63" />
    <path class="mgrs10k-field"
       d="M 213,265 L 241,265 L 241,293 L 213,293 L 213,265 "
       id="34TCN53" />
    <path class="mgrs10k-field"
       d="M 184,265 L 213,265 L 213,293 L 184,293 L 184,265 "
       id="34TCN43" />
    <path class="mgrs10k-field"
       d="M 156,265 L 184,265 L 184,293 L 156,293 L 156,265 "
       id="34TCN33" />
    <path class="mgrs10k-field"
       d="M 127,265 L 156,265 L 156,293 L 127,293 L 127,265 "
       id="34TCN23" />
    <path class="mgrs10k-field"
       d="M 99,265 L 127,265 L 127,293 L 99,293 L 99,265 "
       id="34TCN13" />
    <path class="mgrs10k-field"
       d="M 70,265 L 99,265 L 99,293 L 70,293 L 70,265 "
       id="34TCN03" />
    <path class="mgrs10k-field"
       d="M 42,265 L 70,265 L 70,293 L 42,293 L 42,265 "
       id="34TBN93" />
    <path class="mgrs10k-field"
       d="M 469,236 L 497,236 L 497,265 L 469,265 L 469,236 "
       id="34TDN44" />
    <path class="mgrs10k-field"
       d="M 440,236 L 469,236 L 469,265 L 440,265 L 440,236 "
       id="34TDN34" />
    <path class="mgrs10k-field"
       d="M 412,236 L 440,236 L 440,265 L 412,265 L 412,236 "
       id="34TDN24" />
    <path class="mgrs10k-field"
       d="M 383,236 L 412,236 L 412,265 L 383,265 L 383,236 "
       id="34TDN14" />
    <path class="mgrs10k-field"
       d="M 355,236 L 383,236 L 383,265 L 355,265 L 355,236 "
       id="34TDN04" />
    <path class="mgrs10k-field"
       d="M 327,236 L 355,236 L 355,265 L 327,265 L 327,236 "
       id="34TCN94" />
    <path class="mgrs10k-field"
       d="M 298,236 L 327,236 L 327,265 L 298,265 L 298,236 "
       id="34TCN84" />
    <path class="mgrs10k-field"
       d="M 270,236 L 298,236 L 298,265 L 270,265 L 270,236 "
       id="34TCN74" />
    <path class="mgrs10k-field"
       d="M 241,236 L 270,236 L 270,265 L 241,265 L 241,236 "
       id="34TCN64" />
    <path class="mgrs10k-field"
       d="M 213,236 L 241,236 L 241,265 L 213,265 L 213,236 "
       id="34TCN54" />
    <path class="mgrs10k-field"
       d="M 184,236 L 213,236 L 213,265 L 184,265 L 184,236 "
       id="34TCN44" />
    <path class="mgrs10k-field"
       d="M 156,236 L 184,236 L 184,265 L 156,265 L 156,236 "
       id="34TCN34" />
    <path class="mgrs10k-field"
       d="M 127,236 L 156,236 L 156,265 L 127,265 L 127,236 "
       id="34TCN24" />
    <path class="mgrs10k-field"
       d="M 99,236 L 127,236 L 127,265 L 99,265 L 99,236 "
       id="34TCN14" />
    <path class="mgrs10k-field"
       d="M 70,236 L 99,236 L 99,265 L 70,265 L 70,236 "
       id="34TCN04" />
    <path class="mgrs10k-field"
       d="M 42,236 L 70,236 L 70,265 L 42,265 L 42,236 "
       id="34TBN94" />
    <path class="mgrs10k-field"
       d="M 469,208 L 497,208 L 497,236 L 469,236 L 469,208 "
       id="34TDN45" />
    <path class="mgrs10k-field"
       d="M 440,208 L 469,208 L 469,236 L 440,236 L 440,208 "
       id="34TDN35" />
    <path class="mgrs10k-field"
       d="M 412,208 L 440,208 L 440,236 L 412,236 L 412,208 "
       id="34TDN25" />
    <path class="mgrs10k-field"
       d="M 383,208 L 412,208 L 412,236 L 383,236 L 383,208 "
       id="34TDN15" />
    <path class="mgrs10k-field"
       d="M 355,208 L 383,208 L 383,236 L 355,236 L 355,208 "
       id="34TDN05" />
    <path class="mgrs10k-field"
       d="M 327,208 L 355,208 L 355,236 L 327,236 L 327,208 "
       id="34TCN95" />
    <path class="mgrs10k-field"
       d="M 298,208 L 327,208 L 327,236 L 298,236 L 298,208 "
       id="34TCN85" />
    <path class="mgrs10k-field"
       d="M 270,208 L 298,208 L 298,236 L 270,236 L 270,208 "
       id="34TCN75" />
    <path class="mgrs10k-field"
       d="M 241,208 L 270,208 L 270,236 L 241,236 L 241,208 "
       id="34TCN65" />
    <path class="mgrs10k-field"
       d="M 213,208 L 241,208 L 241,236 L 213,236 L 213,208 "
       id="34TCN55" />
    <path class="mgrs10k-field"
       d="M 184,208 L 213,208 L 213,236 L 184,236 L 184,208 "
       id="34TCN45" />
    <path class="mgrs10k-field"
       d="M 156,208 L 184,208 L 184,236 L 156,236 L 156,208 "
       id="34TCN35" />
    <path class="mgrs10k-field"
       d="M 127,208 L 156,208 L 156,236 L 127,236 L 127,208 "
       id="34TCN25" />
    <path class="mgrs10k-field"
       d="M 99,208 L 127,208 L 127,236 L 99,236 L 99,208 "
       id="34TCN15" />
    <path class="mgrs10k-field"
       d="M 70,208 L 99,208 L 99,236 L 70,236 L 70,208 "
       id="34TCN05" />
    <path class="mgrs10k-field"
       d="M 42,208 L 70,208 L 70,236 L 42,236 L 42,208 "
       id="34TBN95" />
    <path class="mgrs10k-field"
       d="M 412,179 L 440,179 L 440,208 L 412,208 L 412,179 "
       id="34TDN26" />
    <path class="mgrs10k-field"
       d="M 383,179 L 412,179 L 412,208 L 383,208 L 383,179 "
       id="34TDN16" />
    <path class="mgrs10k-field"
       d="M 355,179 L 383,179 L 383,208 L 355,208 L 355,179 "
       id="34TDN06" />
    <path class="mgrs10k-field"
       d="M 327,179 L 355,179 L 355,208 L 327,208 L 327,179 "
       id="34TCN96" />
    <path class="mgrs10k-field"
       d="M 298,179 L 327,179 L 327,208 L 298,208 L 298,179 "
       id="34TCN86" />
    <path class="mgrs10k-field"
       d="M 270,179 L 298,179 L 298,208 L 270,208 L 270,179 "
       id="34TCN76" />
    <path class="mgrs10k-field"
       d="M 241,179 L 270,179 L 270,208 L 241,208 L 241,179 "
       id="34TCN66" />
    <path class="mgrs10k-field"
       d="M 213,179 L 241,179 L 241,208 L 213,208 L 213,179 "
       id="34TCN56" />
    <path class="mgrs10k-field"
       d="M 184,179 L 213,179 L 213,208 L 184,208 L 184,179 "
       id="34TCN46" />
    <path class="mgrs10k-field"
       d="M 156,179 L 184,179 L 184,208 L 156,208 L 156,179 "
       id="34TCN36" />
    <path class="mgrs10k-field"
       d="M 127,179 L 156,179 L 156,208 L 127,208 L 127,179 "
       id="34TCN26" />
    <path class="mgrs10k-field"
       d="M 99,179 L 127,179 L 127,208 L 99,208 L 99,179 "
       id="34TCN16" />
    <path class="mgrs10k-field"
       d="M 70,179 L 99,179 L 99,208 L 70,208 L 70,179 "
       id="34TCN06" />
    <path class="mgrs10k-field"
       d="M 42,179 L 70,179 L 70,208 L 42,208 L 42,179 "
       id="34TBN96" />
    <path class="mgrs10k-field"
       d="M 383,151 L 412,151 L 412,179 L 383,179 L 383,151 "
       id="34TDN17" />
    <path class="mgrs10k-field"
       d="M 355,151 L 383,151 L 383,179 L 355,179 L 355,151 "
       id="34TDN07" />
    <path class="mgrs10k-field"
       d="M 327,151 L 355,151 L 355,179 L 327,179 L 327,151 "
       id="34TCN97" />
    <path class="mgrs10k-field"
       d="M 298,151 L 327,151 L 327,179 L 298,179 L 298,151 "
       id="34TCN87" />
    <path class="mgrs10k-field"
       d="M 270,151 L 298,151 L 298,179 L 270,179 L 270,151 "
       id="34TCN77" />
    <path class="mgrs10k-field"
       d="M 241,151 L 270,151 L 270,179 L 241,179 L 241,151 "
       id="34TCN67" />
    <path class="mgrs10k-field"
       d="M 213,151 L 241,151 L 241,179 L 213,179 L 213,151 "
       id="34TCN57" />
    <path class="mgrs10k-field"
       d="M 184,151 L 213,151 L 213,179 L 184,179 L 184,151 "
       id="34TCN47" />
    <path class="mgrs10k-field"
       d="M 156,151 L 184,151 L 184,179 L 156,179 L 156,151 "
       id="34TCN37" />
    <path class="mgrs10k-field"
       d="M 127,151 L 156,151 L 156,179 L 127,179 L 127,151 "
       id="34TCN27" />
    <path class="mgrs10k-field"
       d="M 99,151 L 127,151 L 127,179 L 99,179 L 99,151 "
       id="34TCN17" />
    <path class="mgrs10k-field"
       d="M 70,151 L 99,151 L 99,179 L 70,179 L 70,151 "
       id="34TCN07" />
    <path class="mgrs10k-field"
       d="M 327,122 L 355,122 L 355,151 L 327,151 L 327,122 "
       id="34TCN98" />
    <path class="mgrs10k-field"
       d="M 298,122 L 327,122 L 327,151 L 298,151 L 298,122 "
       id="34TCN88" />
    <path class="mgrs10k-field"
       d="M 270,122 L 298,122 L 298,151 L 270,151 L 270,122 "
       id="34TCN78" />
    <path class="mgrs10k-field"
       d="M 241,122 L 270,122 L 270,151 L 241,151 L 241,122 "
       id="34TCN68" />
    <path class="mgrs10k-field"
       d="M 213,122 L 241,122 L 241,151 L 213,151 L 213,122 "
       id="34TCN58" />
    <path class="mgrs10k-field"
       d="M 184,122 L 213,122 L 213,151 L 184,151 L 184,122 "
       id="34TCN48" />
    <path class="mgrs10k-field"
       d="M 156,122 L 184,122 L 184,151 L 156,151 L 156,122 "
       id="34TCN38" />
    <path class="mgrs10k-field"
       d="M 127,122 L 156,122 L 156,151 L 127,151 L 127,122 "
       id="34TCN28" />
    <path class="mgrs10k-field"
       d="M 99,122 L 127,122 L 127,151 L 99,151 L 99,122 "
       id="34TCN18" />
    <path class="mgrs10k-field"
       d="M 70,122 L 99,122 L 99,151 L 70,151 L 70,122 "
       id="34TCN08" />
    <path class="mgrs10k-field"
       d="M 298,94 L 327,94 L 327,122 L 298,122 L 298,94 "
       id="34TCN89" />
    <path class="mgrs10k-field"
       d="M 270,94 L 298,94 L 298,122 L 270,122 L 270,94 "
       id="34TCN79" />
    <path class="mgrs10k-field"
       d="M 241,94 L 270,94 L 270,122 L 241,122 L 241,94 "
       id="34TCN69" />
    <path class="mgrs10k-field"
       d="M 213,94 L 241,94 L 241,122 L 213,122 L 213,94 "
       id="34TCN59" />
    <path class="mgrs10k-field"
       d="M 184,94 L 213,94 L 213,122 L 184,122 L 184,94 "
       id="34TCN49" />
    <path class="mgrs10k-field"
       d="M 156,94 L 184,94 L 184,122 L 156,122 L 156,94 "
       id="34TCN39" />
    <path class="mgrs10k-field"
       d="M 127,94 L 156,94 L 156,122 L 127,122 L 127,94 "
       id="34TCN29" />
    <path class="mgrs10k-field"
       d="M 99,94 L 127,94 L 127,122 L 99,122 L 99,94 "
       id="34TCN19" />
    <path class="mgrs10k-field"
       d="M 270,65 L 298,65 L 298,94 L 270,94 L 270,65 "
       id="34TCP70" />
    <path class="mgrs10k-field"
       d="M 241,65 L 270,65 L 270,94 L 241,94 L 241,65 "
       id="34TCP60" />
    <path class="mgrs10k-field"
       d="M 213,65 L 241,65 L 241,94 L 213,94 L 213,65 "
       id="34TCP50" />
    <path class="mgrs10k-field"
       d="M 184,65 L 213,65 L 213,94 L 184,94 L 184,65 "
       id="34TCP40" />
    <path class="mgrs10k-field"
       d="M 156,65 L 184,65 L 184,94 L 156,94 L 156,65 "
       id="34TCP30" />
    <path class="mgrs10k-field"
       d="M 127,65 L 156,65 L 156,94 L 127,94 L 127,65 "
       id="34TCP20" />
    <path class="mgrs10k-field"
       d="M 241,37 L 270,37 L 270,65 L 241,65 L 241,37 "
       id="34TCP61" />
    <path class="mgrs10k-field"
       d="M 213,37 L 241,37 L 241,65 L 213,65 L 213,37 "
       id="34TCP51" />
    <path class="mgrs10k-field"
       d="M 184,37 L 213,37 L 213,65 L 184,65 L 184,37 "
       id="34TCP41" />
    <path class="mgrs10k-field"
       d="M 156,37 L 184,37 L 184,65 L 156,65 L 156,37 "
       id="34TCP31" />
    <path class="mgrs10k-field"
       d="M 213,8 L 241,8 L 241,37 L 213,37 L 213,8 "
       id="34TCP52" />
    <path class="mgrs10k-field"
       d="M 184,8 L 213,8 L 213,37 L 184,37 L 184,8 "
       id="34TCP42" />
    <path class="mgrs10k-field"
       d="M 156,8 L 184,8 L 184,37 L 156,37 L 156,8 "
       id="34TCP32" />
  </g>
</svg>
