<svg xmlns="http://www.w3.org/2000/svg" width="2000" height="537.507" viewBox="0 0 529.167 142.215"><g font-weight="700" font-size="25.4" font-family="Adamant Sans BG" letter-spacing="0" word-spacing="0"><path style="line-height:125%;-inkscape-font-specification:'Adamant Sans BG Bold'" d="M221.673 89.06c0 26.007 17.715 26.132 25.002 26.132 3.392 0 7.4-.089 12.563-1.759-12.563-3.529-11.1-10.165-12.06-27.765V49.925c-.345-18.522-6.2-36.578-39.035-39.644 11.42 8.826 13.902 16.712 13.53 24.827zM300.705 80.643c0 10.427-2.01 16.96-7.915 16.96s-7.915-6.533-7.915-16.96c0-10.428 2.01-16.961 7.915-16.961s7.915 6.533 7.915 16.96zm26.51 0c0-21.735-12.815-34.55-34.425-34.55-21.609 0-34.424 12.815-34.424 34.55 0 21.734 12.815 34.55 34.424 34.55 21.61 0 34.424-12.816 34.424-34.55zM404.955 57.586c-2.746-.743-3.66-2.651-7.522-3.25.036-.87 1.543-2.843 5.27-3.785-2.393-.738-4.111-.45-5.523.218-2.79 1.323-4.383 4.134-7.62 3.445-5.984-7.261-16.166-8.081-23.915-8.122-16.081 0-31.032 6.785-31.032 23.243 0 6.658 3.267 12.815 9.297 16.458v.502c-5.905 3.518-9.297 9.674-9.297 16.458 0 14.95 12.69 16.333 21.484 16.333h19.348c2.638 0 4.146.628 4.146 2.387 0 4.397-9.8 5.025-15.705 5.025-8.543 0-18.845-1.507-24.876-4.9-5.685-1.725-10.037-4.34-15.055-6.51 1.688 5.393 20.238 24.216 37.921 25.23 16.306.934 38.319-3.895 38.319-23.996 0-12.312-9.046-18.343-21.735-18.343h-17.464c-3.643 0-8.794 0-8.794-3.895 0-2.01 1.634-3.266 3.015-3.894 2.89.753 7.664 1.13 10.428 1.13 19.725 0 31.032-9.674 31.032-21.61 0-2.889-.88-6.156-2.513-8.543v-.501c.666-2.12 1.674-3.806 3.824-3.736 1.721.053 4.355 1.589 6.967.655zm-19.683 6.494c0 3.518-1.884 7.664-6.407 7.664s-6.407-4.146-6.407-7.664 1.884-7.664 6.407-7.664 6.407 4.146 6.407 7.664zM467.294 85.04c.502-2.89.879-6.408.879-9.925 0-17.966-11.81-29.022-29.399-29.022-21.107 0-33.67 13.191-33.67 34.55 0 22.488 13.317 34.55 35.429 34.55 9.046 0 18.091-1.76 26.132-5.529l-5.528-15.327c-4.272 1.507-9.171 2.638-14.197 2.638-8.417 0-15.202-2.89-16.332-11.935zm-36.811-11.684c.252-6.533 2.89-12.187 7.412-12.187 3.644 0 5.905 4.146 5.905 10.428zM476.952 113.936h25.504v-44.35c1.507-1.005 4.523-2.01 8.041-2.01 2.89 0 6.03.629 8.92 2.513l7.538-22.74c-1.759-.754-4.271-1.257-6.659-1.257-5.527 0-11.684 2.387-17.84 8.166h-.502c0-4.774-2.764-8.166-8.669-8.166-.88 0-2.135.125-2.89.252l-13.442 2.135zM111.237 23.055c-7.058 7.234-6.893 11.572.698 18.298 7.592 6.726 12.145 6.568 19.203-.666 7.059-7.234 6.893-11.573-.698-18.298-7.591-6.726-12.145-6.568-19.203.666z" fill="none" stroke="#fff" stroke-width="3.5717100000000004"/><path style="line-height:125%;-inkscape-font-specification:'Adamant Sans BG Bold'" d="M82.432 34.46c-8.048-11.856-27.585-11.552-30.733 11.084-2.036 11.128 29.576 4.584 38.508 32.85 1.482-31.861-2.782-35.726-7.775-43.934zm-44.133 70.82c23.37 4.735 49.127-21.218 49.127-21.218-41.785-8.491-50.015-.332-56.823 3.24-7.493 8.954-4.395 16.019 7.696 17.977zM.342 101.761C-5.425 66.618 63.471 67.823 73.734 75.49 48.54 69.026 5.692 57.258 19.543 27.676 33.238-5.302 72.82-5.394 84.038 9.66c25.132 28.847 23.235 64.846 12.886 75.696-11.783 16.846-68.812 58.047-92.998 24.803-1.507-2.072-3.074-5.83-3.584-8.397z" stroke="#fff" fill="#fff"/><path style="line-height:125%;-inkscape-font-specification:'Adamant Sans BG Bold'" d="M67.251 123.768c21.815 3.313 56.011-21.985 61.172-54.886.79-9.858-7.274-23.11-17.382-11.141-15.866 45.497-27.944 55.001-43.79 66.027zM180.857 78.052c0 10.428-2.01 16.961-7.915 16.961s-7.915-6.533-7.915-16.96c0-10.428 2.01-16.961 7.915-16.961s7.915 6.533 7.915 16.96zm26.509 0c0-21.735-12.815-34.55-34.424-34.55-21.61 0-34.424 12.815-34.424 34.55s12.815 34.55 34.424 34.55c21.61 0 34.424-12.815 34.424-34.55z" fill="none" stroke="#fff" stroke-width="3.5717100000000004"/></g></svg>
