<svg xmlns="http://www.w3.org/2000/svg" width="320" height="320" viewBox="0 0 320 320"><path fill="none" d="M19.574 302.901h.9v1.125h-.9zM-3.825 288.727h16.199v10.349H-3.825z"/><path fill="#d3d3d3" d="M0 0h320v320H0z"/><g fill="#fff"><path d="M254.89 77.378c-5.346.183-10.557 3.532-16.915 10.047-12.725 13.043-12.428 20.866 1.254 32.984 13.665 12.119 21.882 11.827 34.591-1.2 12.709-13.044 12.41-20.867-1.271-32.985-6.841-6.06-12.308-9.03-17.658-8.846zM186.063 107.989c-14.495-21.366-49.688-20.824-55.349 19.98-3.667 20.058 53.26 8.259 69.365 59.204 2.663-57.435-5.007-64.387-14.016-79.184zm-79.491 127.657c42.097 8.53 88.5-38.253 88.5-38.253-75.265-15.307-90.095-.59-102.373 5.836-13.49 16.153-7.91 28.877 13.873 32.417zM38.195 229.3c-10.397-63.35 113.711-61.182 132.193-47.357-45.367-11.64-122.561-32.863-97.606-86.184 24.669-59.46 95.98-59.619 116.183-32.48 45.287 51.997 41.858 116.878 23.218 136.442-21.225 30.376-123.965 104.632-167.53 44.71a45.446 45.444 0 0 1-6.458-15.131z"/><path d="M253.231 141.475c-4.596-.565-9.923 1.721-15.61 8.458-28.59 82.022-50.35 99.147-78.894 119.03 39.291 5.964 100.888-39.636 110.184-98.936.987-12.212-5.568-27.309-15.68-28.552z"/></g></svg>
