<?xml version="1.0" encoding="UTF-8"?>
<!-- Created with Inkscape (http://www.inkscape.org/) -->
<svg version="1.1" viewBox="0 0 59.531 15.875" xmlns="http://www.w3.org/2000/svg">
 <g transform="translate(-3.9246e-8 -281.12)">
  <g transform="matrix(2.0175 0 0 2.0189 -14.464 14.532)">
   <path d="m19.582 137.04c0 1.4563 0.99194 1.4633 1.4 1.4633 0.18995 0 0.41437-5e-3 0.7035-0.0985-0.7035-0.19761-0.62159-0.56919-0.67536-1.5547v-2.0014c-0.01927-1.0372-0.34712-2.0482-2.1857-2.2199 0.63948 0.49422 0.77843 0.9358 0.75761 1.3902z"/>
   <path d="m24.007 136.57c0 0.58391-0.11256 0.94973-0.44321 0.94973s-0.44321-0.36582-0.44321-0.94973 0.11256-0.94973 0.44321-0.94973 0.44321 0.36582 0.44321 0.94973zm1.4844 0c0-1.2171-0.71757-1.9346-1.9276-1.9346s-1.9276 0.71758-1.9276 1.9346 0.71757 1.9346 1.9276 1.9346 1.9276-0.71757 1.9276-1.9346z"/>
   <path d="m29.845 135.28c-0.15377-0.0416-0.20493-0.14842-0.42121-0.18198 0.0016-0.0487 0.08645-0.15917 0.29506-0.21194-0.13399-0.0413-0.2302-0.0252-0.30924 0.0122-0.15628 0.0741-0.24542 0.23153-0.42668 0.19291-0.33511-0.40658-0.90523-0.4525-1.3391-0.45477-0.90048 0-1.7377 0.3799-1.7377 1.3015 0 0.37285 0.18291 0.71757 0.52059 0.92159v0.0281c-0.33065 0.19698-0.52059 0.54169-0.52059 0.92159 0 0.83716 0.71054 0.91455 1.203 0.91455h1.0834c0.14774 0 0.23216 0.0352 0.23216 0.13367 0 0.24622-0.54873 0.2814-0.87938 0.2814-0.47838 0-1.0553-0.0844-1.3929-0.27437-0.31835-0.0966-0.56202-0.24304-0.843-0.36458 0.09451 0.30198 1.1332 1.356 2.1234 1.4128 0.91305 0.0523 2.1457-0.21809 2.1457-1.3437 0-0.68943-0.50652-1.0271-1.2171-1.0271h-0.97787c-0.20402 0-0.49245 0-0.49245-0.21808 0-0.11256 0.09145-0.18291 0.16884-0.21809 0.16181 0.0422 0.42914 0.0633 0.58391 0.0633 1.1045 0 1.7377-0.5417 1.7377-1.21 0-0.1618-0.04925-0.34472-0.1407-0.47838v-0.0281c0.03728-0.11872 0.0937-0.21312 0.21411-0.2092 0.09642 3e-3 0.24388 0.089 0.39014 0.0367zm-1.1022 0.36367c0 0.19698-0.10552 0.42914-0.35879 0.42914s-0.35879-0.23216-0.35879-0.42914 0.10553-0.42914 0.35879-0.42914 0.35879 0.23216 0.35879 0.42914z" fill="#529028"/>
   <path d="m33.335 136.81c0.02814-0.1618 0.04924-0.35878 0.04924-0.55576 0-1.006-0.66129-1.6251-1.6462-1.6251-1.1819 0-1.8854 0.73868-1.8854 1.9346 0 1.2593 0.74571 1.9346 1.9839 1.9346 0.50652 0 1.013-0.0985 1.4633-0.30954l-0.30954-0.85827c-0.23919 0.0844-0.51356 0.14773-0.79496 0.14773-0.47135 0-0.85124-0.1618-0.91456-0.66833zm-2.0613-0.65425c0.01407-0.36583 0.16181-0.6824 0.41507-0.6824 0.20402 0 0.33065 0.23215 0.33065 0.58391z"/>
   <path d="m33.876 138.43h1.4281v-2.4834c0.08442-0.0563 0.25326-0.11256 0.45024-0.11256 0.16181 0 0.33768 0.0352 0.49949 0.1407l0.4221-1.2733c-0.09849-0.0422-0.23919-0.0704-0.37286-0.0704-0.30954 0-0.65426 0.13367-0.99898 0.45728h-0.02814c0-0.26733-0.15477-0.45728-0.48542-0.45728-0.04925 0-0.1196 7e-3 -0.16181 0.0141l-0.75274 0.1196z"/>
   <path d="m13.398 133.34c-0.39524 0.40506-0.38597 0.648 0.03911 1.0246 0.42508 0.37661 0.68005 0.36778 1.0753-0.0373 0.39524-0.40506 0.38596-0.64802-0.03911-1.0246-0.42508-0.37661-0.68005-0.36778-1.0753 0.0373z" fill="#040b00"/>
   <path d="m11.785 133.98c-0.45062-0.66386-1.5446-0.64683-1.7209 0.62069-0.11403 0.62308 1.6561 0.25667 2.1563 1.8395 0.08295-1.7841-0.15582-2.0005-0.43539-2.4602zm-2.4713 3.9656c1.3086 0.26521 2.7509-1.188 2.7509-1.188-2.3397-0.47549-2.8006-0.0186-3.1818 0.18136-0.41961 0.50142-0.24615 0.89703 0.4309 1.0067zm-2.1254-0.19696c-0.32298-1.9679 3.5349-1.9004 4.1096-1.4711-1.4108-0.36197-3.8101-1.0209-3.0345-2.6774 0.76687-1.8466 2.9833-1.8518 3.6115-1.0088 1.4073 1.6153 1.301 3.6311 0.72156 4.2386-0.65983 0.9433-3.8532 3.2504-5.2075 1.3889-0.084414-0.11606-0.17213-0.32647-0.20067-0.47023z" fill="#529028"/>
   <path d="m10.935 138.98c1.2215 0.18549 3.1364-1.2311 3.4253-3.0734 0.04415-0.55199-0.40729-1.294-0.97329-0.62384-0.88843 2.5476-1.5647 3.0798-2.452 3.6972z"/>
   <path d="m17.296 136.42c0 0.58391-0.11256 0.94973-0.44321 0.94973-0.33065 0-0.44321-0.36582-0.44321-0.94973s0.11256-0.94973 0.44321-0.94973c0.33065 0 0.44321 0.36582 0.44321 0.94973zm1.4844 0c0-1.2171-0.71757-1.9346-1.9276-1.9346-1.21 0-1.9276 0.71758-1.9276 1.9346s0.71757 1.9346 1.9276 1.9346c1.21 0 1.9276-0.71757 1.9276-1.9346z"/>
  </g>
 </g>
</svg>
