<?xml version="1.0" encoding="UTF-8"?>
<svg version="1.1" xmlns="http://www.w3.org/2000/svg" viewBox="0 0 2000 533.322"><g><path fill="#FFFFFF" d="M841.338 338.234c0 98.767 67.225 99.237 94.875 99.237 12.9 0 28.086-.336 47.706-6.685-47.706-13.404-42.129-38.6-45.791-105.418V189.613c-1.31-70.346-23.517-138.912-148.159-150.569 43.34 33.527 52.746 63.493 51.369 94.3zm299.946-31.982c0 39.642-7.627 64.434-30.035 64.434-22.409 0-30.035-24.826-30.035-64.434 0-39.574 7.626-64.4 30.035-64.4 22.408 0 30.035 24.826 30.035 64.4zm100.62 0c0-82.54-48.647-131.185-130.655-131.185-82.008 0-130.656 48.644-130.656 131.185 0 82.575 48.648 131.22 130.69 131.22 81.974 0 130.621-48.645 130.621-131.22zM1536.979 218.706c-10.415-2.822-13.91-10.078-28.557-12.33.1-3.325 5.846-10.816 19.99-14.377-9.071-2.822-15.59-1.714-20.964.806-10.583 5.039-16.63 15.722-28.893 13.102-22.745-27.581-61.38-30.706-90.777-30.84-61.044 0-117.788 25.767-117.788 88.252 0 25.296 12.397 48.678 35.276 62.485v1.915a71.862 71.858 0 0 0-35.276 62.519c0 56.774 48.144 62.015 81.538 62.015h73.441c10.012 0 15.723 2.385 15.723 9.07 0 16.697-37.19 19.082-59.6 19.082-32.42 0-71.525-5.711-94.404-18.611-21.603-6.551-38.098-16.462-57.147-24.726 6.383 20.493 76.8 91.981 143.925 95.844 61.884 3.528 145.438-14.781 145.438-91.14 0-46.764-34.335-69.675-82.512-69.675h-66.252c-13.841 0-33.394 0-33.394-14.781 0-7.626 6.215-12.43 11.422-14.782 10.986 2.856 29.095 4.3 39.61 4.3 74.852 0 117.755-36.752 117.755-82.07 0-10.986-3.326-23.382-9.508-32.452v-1.915c2.52-8.063 6.35-14.446 14.513-14.177 6.518.202 16.53 6.047 26.44 2.486zm-74.718 24.658c0 13.37-7.156 29.126-24.324 29.126-17.134 0-24.323-15.789-24.323-29.126 0-13.37 7.156-29.092 24.323-29.092 17.168 0 24.324 15.722 24.324 29.092zM1773.562 322.982c1.915-10.985 3.36-24.355 3.36-37.692 0-68.23-44.85-110.223-111.606-110.223-80.093 0-127.766 50.089-127.766 131.185 0 85.43 50.528 131.22 134.451 131.22 34.335 0 68.67-6.686 99.176-20.997l-20.964-58.185a163.848 163.839 0 0 1-53.888 10.01c-31.95 0-57.718-10.984-61.985-45.351zm-139.692-44.378c.94-24.826 10.952-46.292 28.12-46.292 13.841 0 22.408 15.755 22.408 39.607zm176.346 154.097h96.824V264.293c5.71-3.83 17.134-7.66 30.505-7.66 10.952 0 22.879 2.386 33.865 9.542l28.59-86.338a68.166 68.163 0 0 0-25.264-4.77c-20.998 0-44.347 9.07-67.696 31.008h-1.915c0-18.141-10.482-31.008-32.925-31.008-3.326 0-8.063.47-10.952.94l-51.032 8.13zM422.193 87.554c-26.81 27.48-26.172 43.975 2.654 69.507 28.792 25.531 46.094 24.926 72.87-2.52 26.776-27.48 26.171-43.975-2.654-69.506-28.826-25.532-46.094-24.96-72.904 2.52zM312.837 130.89C282.3 85.875 208.152 87.018 196.225 172.985c-7.727 42.262 112.211 17.402 146.143 124.735 5.61-121.006-10.549-135.653-29.53-166.828zM145.361 399.847c88.693 17.973 186.458-80.593 186.458-80.593-158.573-32.25-189.818-1.243-215.687 12.296-28.422 34.03-16.663 60.839 29.229 68.297zM1.3 386.476c-21.905-133.47 239.574-128.902 278.511-99.775-95.58-24.524-258.22-69.238-205.641-181.577C126.144-20.149 276.386-20.485 318.95 36.693c95.414 109.55 88.19 246.245 48.917 287.465-44.717 63.997-261.176 220.445-352.96 94.198A95.749 95.743 0 0 1 1.3 386.476z"/><path fill="#FFFFFF" d="M255.254 470.058c82.78 12.564 212.562-83.515 232.149-208.452 3.023-37.424-27.616-87.748-65.95-42.329-60.237 172.809-106.062 208.889-166.2 250.78zm431.172-173.615c0 39.607-7.626 64.4-30.035 64.4s-30.068-24.793-30.068-64.4c0-39.641 7.66-64.434 30.068-64.434 22.409 0 30.035 24.826 30.035 64.434zm100.62 0c0-82.541-48.647-131.219-130.688-131.219-81.975 0-130.622 48.678-130.622 131.219 0 82.54 48.613 131.185 130.655 131.185 81.975 0 130.655-48.644 130.655-131.185z"/></g></svg>
